<svg xmlns="http://www.w3.org/2000/svg" viewBox="0 0 10.75 10.91">
  <defs>
    <style>
      .cls-1 {
        fill: #c6c6c6;
      }
    </style>
  </defs>
  <title>download</title>
  <g id="Layer_2" data-name="Layer 2">
    <g id="maquettes">
      <path class="cls-1" d="M10.4,10.91H.35A.35.35,0,0,1,0,10.56v-4a.35.35,0,0,1,.7,0v3.67H10V6.54a.35.35,0,0,1,.7,0v4A.35.35,0,0,1,10.4,10.91Z"/>
      <g>
        <path class="cls-1" d="M5.37,7.72A.35.35,0,0,1,5,7.37v-7a.35.35,0,0,1,.7,0v7A.35.35,0,0,1,5.37,7.72Z"/>
        <path class="cls-1" d="M5.37,8a.35.35,0,0,1-.25-.1L1.68,4.44a.35.35,0,1,1,.49-.49l3.2,3.2,3.2-3.2a.35.35,0,0,1,.49.49L5.62,7.88A.35.35,0,0,1,5.37,8Z"/>
      </g>
    </g>
  </g>
</svg>
