<?xml version="1.0" encoding="utf-8"?>
<!-- Generator: Adobe Illustrator 20.1.0, SVG Export Plug-In . SVG Version: 6.00 Build 0)  -->
<svg version="1.1" id="Layer_1" xmlns="http://www.w3.org/2000/svg" xmlns:xlink="http://www.w3.org/1999/xlink" x="0px" y="0px"
	 viewBox="0 0 53 53" style="enable-background:new 0 0 53 53;" xml:space="preserve">
<style type="text/css">
	.st0{ fill: #000;}
</style>
<path class="st0" d="M49.2,49.2H3.5V3.5h45.7V49.2z M5.7,47.1h41.4V5.7H5.7V47.1z"/>
<path class="st0" d="M35.9,25H28v-8.1c0-0.8-0.7-1.5-1.5-1.5S25,16,25,16.9V25h-8.2c-0.8,0-1.5,0.7-1.5,1.5S16,28,16.8,28H25v7.9
	c0,0.8,0.7,1.5,1.5,1.5s1.5-0.7,1.5-1.5V28h7.9c0.8,0,1.5-0.7,1.5-1.5S36.7,25,35.9,25z"/>
</svg>
